<svg xmlns="http://www.w3.org/2000/svg" width="1024" height="1024" viewBox="0 0 1024 1024">
  <defs>
    <!-- Background: same deep warm dark as FolderPlayer -->
    <linearGradient id="bg" x1="0" y1="0" x2="1024" y2="1024" gradientUnits="userSpaceOnUse">
      <stop offset="0%" stop-color="#1E1B2E"/>
      <stop offset="100%" stop-color="#100E19"/>
    </linearGradient>

    <!-- Folder surfaces -->
    <linearGradient id="folderBody" x1="512" y1="375" x2="512" y2="795" gradientUnits="userSpaceOnUse">
      <stop offset="0%" stop-color="#F5EADB"/>
      <stop offset="100%" stop-color="#E2CDAF"/>
    </linearGradient>
    <linearGradient id="folderTab" x1="310" y1="275" x2="310" y2="375" gradientUnits="userSpaceOnUse">
      <stop offset="0%" stop-color="#FAF2E8"/>
      <stop offset="100%" stop-color="#EEDDCA"/>
    </linearGradient>

    <!-- Contact card background -->
    <linearGradient id="cardBg" x1="512" y1="432" x2="512" y2="728" gradientUnits="userSpaceOnUse">
      <stop offset="0%" stop-color="#FFF9F2"/>
      <stop offset="100%" stop-color="#F5EDE3"/>
    </linearGradient>

    <!-- Warm avatar gradient -->
    <linearGradient id="avatarGrad" x1="0" y1="0" x2="0" y2="1">
      <stop offset="0%" stop-color="#E8C4A8"/>
      <stop offset="100%" stop-color="#D4A688"/>
    </linearGradient>

    <!-- Accent: warm terracotta/sienna for text lines -->
    <linearGradient id="lineGrad" x1="0" y1="0" x2="1" y2="0">
      <stop offset="0%" stop-color="#C4937A"/>
      <stop offset="100%" stop-color="#B07E68"/>
    </linearGradient>

    <!-- Shadows -->
    <filter id="folderShadow">
      <feDropShadow dx="0" dy="10" stdDeviation="22" flood-color="#000" flood-opacity="0.5"/>
    </filter>
    <filter id="cardShadow">
      <feDropShadow dx="0" dy="4" stdDeviation="8" flood-color="#000" flood-opacity="0.2"/>
    </filter>
    <filter id="softShadow">
      <feDropShadow dx="0" dy="2" stdDeviation="4" flood-color="#8B6F5E" flood-opacity="0.15"/>
    </filter>

    <!-- Clip for avatar -->
    <clipPath id="avatarClip">
      <circle cx="512" cy="540" r="62"/>
    </clipPath>
  </defs>

  <!-- Background -->
  <rect width="1024" height="1024" fill="url(#bg)"/>

  <!-- Subtle ambient glow -->
  <ellipse cx="512" cy="580" rx="340" ry="260" fill="#2E2844" opacity="0.6"/>

  <!-- ====== FOLDER ====== -->
  <g filter="url(#folderShadow)">
    <!-- Tab -->
    <path d="M205,375 L205,320 Q205,288 235,288 L400,288 Q426,288 436,316 L458,375" fill="url(#folderTab)"/>
    <!-- Body -->
    <rect x="182" y="375" width="660" height="420" rx="28" fill="url(#folderBody)"/>
  </g>

  <!-- ====== BACK CARD (tilted) ====== -->
  <g filter="url(#cardShadow)">
    <rect x="248" y="408" width="556" height="316" rx="14" fill="#FFFFFF"
          transform="rotate(-2.5, 512, 566)" opacity="0.8"/>
  </g>

  <!-- ====== FRONT CARD ====== -->
  <g filter="url(#cardShadow)">
    <rect x="232" y="424" width="560" height="312" rx="14" fill="url(#cardBg)"/>

    <!-- ====== CONTACT CONTENT ====== -->

    <!-- Avatar circle -->
    <g filter="url(#softShadow)">
      <circle cx="512" cy="540" r="66" fill="#F0E2D4"/>
      <g clip-path="url(#avatarClip)">
        <!-- Head -->
        <circle cx="512" cy="516" r="24" fill="url(#avatarGrad)"/>
        <!-- Shoulders -->
        <ellipse cx="512" cy="580" rx="38" ry="28" fill="url(#avatarGrad)"/>
      </g>
    </g>

    <!-- Name -->
    <rect x="432" y="628" width="160" height="14" rx="7" fill="#9B7461" opacity="0.85"/>
    <!-- Phone -->
    <rect x="410" y="656" width="204" height="10" rx="5" fill="#C4A28D" opacity="0.5"/>
    <!-- Email -->
    <rect x="430" y="678" width="164" height="10" rx="5" fill="#C4A28D" opacity="0.35"/>

  </g>
</svg>
